<?xml version="1.0" encoding="UTF-8"?><svg version="1.1" viewBox="0 0 97 44" xmlns="http://www.w3.org/2000/svg" xmlns:xlink="http://www.w3.org/1999/xlink"><defs><mask id="a"><use fill="#FFF" xlink:href="#z"/></mask><mask id="b"><use fill="#FFF" xlink:href="#z"/></mask><mask id="c"><use fill="#FFF" xlink:href="#z"/></mask><mask id="d"><use fill="#FFF" xlink:href="#z"/></mask><mask id="e"><use fill="#FFF" xlink:href="#z"/></mask><mask id="f"><use fill="#FFF" xlink:href="#z"/></mask><mask id="g"><use fill="#FFF" xlink:href="#z"/></mask><mask id="h"><use fill="#FFF" xlink:href="#z"/></mask><mask id="i"><use fill="#FFF" xlink:href="#z"/></mask><mask id="j"><use fill="#FFF" xlink:href="#z"/></mask><mask id="k"><use fill="#FFF" xlink:href="#z"/></mask><mask id="l"><use fill="#FFF" xlink:href="#z"/></mask><mask id="m"><use fill="#FFF" xlink:href="#z"/></mask><mask id="n"><use fill="#FFF" xlink:href="#z"/></mask><mask id="o"><use fill="#FFF" xlink:href="#z"/></mask><mask id="p"><use fill="#FFF" xlink:href="#z"/></mask><mask id="q"><use fill="#FFF" xlink:href="#z"/></mask><mask id="r"><use fill="#FFF" xlink:href="#z"/></mask><mask id="s"><use fill="#FFF" xlink:href="#z"/></mask><mask id="t"><use fill="#FFF" xlink:href="#z"/></mask><mask id="u"><use fill="#FFF" xlink:href="#z"/></mask><mask id="v"><use fill="#FFF" xlink:href="#z"/></mask><mask id="w"><use fill="#FFF" xlink:href="#z"/></mask><mask id="x"><use fill="#FFF" xlink:href="#z"/></mask><mask id="y"><use fill="#FFF" xlink:href="#z"/></mask><path id="z" d="M0 44l97 0 0-44L0 0Z"/></defs><g transform="translate(0-13)"><g transform="translate(0 13)"><g fill-rule="evenodd" fill="#060101" stroke="none"><path d="M55.3117 32.1035l0 5.4022 -1.3151 0 0-2.3898 -2.3861 0 0 2.3897 -1.3239 0 0-5.4023 1.3238 0 0 2.0239 2.386 0 0-2.024Z"/><path d="M59.7618 36.5949c.2786 0 .5063-.0313.6835-.0935 .1771-.0623.3148-.1635.4137-.3035 .0986-.1401.1667-.3245.2046-.5528 .0376-.2281.0565-.5085.0565-.8408 0-.3269-.0189-.6059-.0566-.8368 -.038-.231-.106-.4191-.2047-.5645 -.099-.1452-.2366-.2503-.4138-.3152 -.1772-.0648-.4049-.0974-.6836-.0974s-.5052.0326-.6795.0973c-.1743.0648-.3107.17-.4092.3151 -.099.1453-.167.3334-.2047.5644 -.0381.2308-.0566.5098-.0566.8367 0 .3323.0185.6127.0565.8407 .0376.2283.1057.4127.2046.5527 .0985.14.2349.2412.4091.3034 .1742.0622.4007.0934.6794.0934m0 .9885c-.4355 0-.8246-.0417-1.1673-.1244 -.3426-.0832-.6299-.23-.862-.4401 -.2324-.2103-.4093-.4944-.5313-.8525 -.122-.3579-.183-.8123-.183-1.3624 0-.55.061-1.0043.1829-1.3624 .1219-.3579.2988-.6422.5312-.8523 .232-.2103.5194-.357.8619-.4401 .3426-.083.7317-.1244 1.1672-.1244 .4409 0 .8328.0413 1.1755.1243 .3425.083.6298.2297.8622.44 .232.21.4077.4943.5267.8522 .1191.3581.1784.8123.1784 1.3623 0 .5501-.0594 1.0044-.1785 1.3623 -.119.3581-.2947.6421-.5268.8524 -.2324.21-.5198.3568-.8623.44 -.3427.0826-.7346.1243-1.1756.1243"/><path d="M64.2117 32.1035l2.1511 0 1.0015 3.0437 .0523 0 1.0449-3.0438 2.0901 0 0 5.4022 -1.3064 0 0-4.2503 -.0523 0 -1.167 3.2303 -1.3237 0 -1.1497-3.2304 -.0521 0 0 4.2502 -1.2892 0Z"/><path d="M76.2297 36.478l0 1.0276 -3.8145 0 0-5.4023 3.6924 0 0 1.0274 -2.3686 0 0 1.1131 2.1946 0 0 .9885 -2.1947 0 0 1.2453Z"/><path d="M81.8033 33.1386l-1.5849 0 0 4.367 -1.315 0 0-4.3671 -1.5851 0 0-1.03519 4.4848 0Z"/><path mask="url(#a)" d="M83.1528 37.5056l1.3238 0 0-5.4023 -1.3239 0Z"/><path mask="url(#b)" d="M88.3433 36.4936c.2786 0 .5211-.0258.7273-.0778 .2059-.052.3772-.1428.5137-.2724 .1366-.1298.238-.3038.3047-.5216 .0667-.218.1003-.4906.1003-.8176 0-.3477-.0349-.6317-.1045-.8525 -.07-.2205-.173-.3943-.3094-.5216 -.1364-.1272-.3078-.2141-.5138-.2608 -.2062-.0468-.4457-.07-.7187-.07h-.6791v3.3938h.679Zm.0698-4.3902c.4409 0 .8432.0347 1.2061.1047 .3626.07.6734.2038.9315.4008 .2583.1973.4572.4725.5967.8251 .1392.353.2091.8097.2091 1.3701 0 .5243-.0699.9587-.2092 1.304 -.1395.3451-.3384.6214-.5968.8289 -.2582.2077-.5689.3542-.9316.44 -.363.0855-.7653.1282-1.2062.1282h-2.0728v-5.4023h2.0727Z"/><path mask="url(#c)" d="M96.8865 36.478l0 1.0276 -3.8145 0 0-5.4023 3.6924 0 0 1.0274 -2.3686 0 0 1.1131 2.1946 0 0 .9885 -2.1947 0 0 1.2453Z"/><path mask="url(#d)" d="M96.9824 10.1496l0-2.2778 -22.2105 0 0 2.2777 10.2385 0 -1.6666 2.1124 -7.4536 0 0 .0175 -.0057 0 0 9.6873 2.4443 0 0-7.4272 15.1242 0 0 7.4484 2.4443 0 0-7.4485 0-2.2603 0-.0176 -9.5202 0 1.6665-2.1125Z"/><path mask="url(#e)" fill="#EAAC3B" d="M80.1298 28.3703c-.5405.1178-1.1178.1483-1.6433-.0182 -.5254-.1664-.9898-.5547-1.1236-1.0566 -.141-.5284.1049-1.1003.5171-1.4859 .4123-.3857.9684-.6098 1.5305-.7583 1.4243-.3762 2.9375-.3155 4.3991-.0607 -.0629.2212-.1396.4397-.235.6541 -.5989 1.3468-1.922 2.3933-3.4452 2.7253m16.8702-.4427c-1.2387-.9456-2.5761-1.7603-3.9862-2.4268 -1.5891-.751-3.2634-1.3217-4.9792-1.7075 -.3967-.0893-.7962-.1681-1.1973-.2378 .3943-2.0576.2659-4.6861.2659-6.7045 -1.0183.0002-2.0366.0005-3.0548.0007 .0095 0 .0254 4.8132.027 5.2253 .0011.2636.0019.5282-.003.7927 -.0023.1215-.0059.2427-.0109.3639 -1.035-.0602-2.0736-.0541-3.1064.021 -1.8993.1381-3.9829.397-5.3538 1.8716 -.9887 1.0633-1.1221 2.77-.0182 3.8163 .5073.4808 1.2093.7532 1.923.8654 3.3418.5254 7.071-1.5133 8.6412-4.2569 3.2368.9653 6.2201 2.6216 9.0981 4.3336 .1419-.158 1.756-1.9561 1.7539-1.9578"/><path mask="url(#f)" d="M62.4712 7.8614l0-1.4451 -2.3507 0 0 1.4451 -9.9905 0 0 5.6214 2.3506 0 0-3.4108 17.4997 0 0 3.4107 2.3506 0 0-5.6215Z"/><path mask="url(#g)" d="M66.5508 20.5827c1.3723-1.0424 2.5143-2.4902 3.6099-3.6398 -.6131-.5108-1.2264-1.0217-1.8396-1.5324 -.9752 1.0322-1.9503 2.0645-2.9254 3.0968 -.0929.0982-.1881.196-.2824.2942 -.225-.5611-.5398-1.0915-.9398-1.5706l-1.3481-1.6154 3.0453-1.1382h3.2218v-2.1904H53.462v2.1903h6.575l-7.9295 2.9635 .7228 1.9099 7.7254-2.8873 1.3454 1.6122 -10.4398 3.9069 .7224 1.9101 10.7779-4.0336c.135.4232.2051.8651.2051 1.3127v.93l-11.7542 4.3989 .7225 1.9101 11.0316-4.1285v2.3456c0 .5901-.5135 1.0684-1.1467 1.0684h-2.659v2.1905h2.9985c1.7438 0 3.1577-1.3175 3.1577-2.9424v-4.8588c1.5098 1.8529 2.6455 3.9752 3.6997 6.0935 .1686-.0478 2.0883-.5927 2.0876-.5946 -.1619-.4652-.3464-.9234-.5531-1.3733 -.972-2.1165-2.4207-4.0348-4.202-5.6296"/><path mask="url(#h)" d="M25.089 30.9714l-.0321 3.1098 -.5804.3527 .014-1.3758 -1.0535.6397 -.0142 1.3757 -.5846.3553 .032-3.1101 .5847-.3554 -.0124 1.1653 1.0536-.6398 .0123-1.1658Z"/><path mask="url(#i)" d="M22.9261 32.3508l-.0308 2.9776 .4715-.2863 .014-1.3758 1.1667-.7089 -.0142 1.3757 .4672-.2836 .0307-2.9777 -.4672.283 -.0124 1.1657 -1.1666.7089 .0122-1.1654 -.4716.2862Zm-.1452 3.1789l.0334-3.242 .6976-.4246 -.0123 1.1653 .9405-.5707 .0123-1.1658 .6932-.4214 -.0335 3.2419 -.6933.4218 .014-1.3758 -.9407.5705 -.0141 1.3757 -.6977.4245Z"/><path mask="url(#j)" d="M26.7963 32.5035c.1226-.0745.2239-.1537.3017-.2368 .0791-.0836.1408-.179.1848-.2858 .0442-.1077.0755-.2315.0935-.373 .0181-.1418.0282-.3081.03-.4992 .0021-.1882-.0049-.3437-.0203-.4665 -.015-.1231-.0441-.2133-.0867-.27 -.0427-.0578-.1029-.0811-.1813-.0707 -.0774.0101-.1778.0525-.3004.1273 -.1232.0744-.2236.154-.301.238 -.0774.0839-.1378.1807-.1822.2914 -.0449.1102-.0758.2361-.0941.3793 -.0181.1431-.0278.3089-.0299.4971 -.0018.1912.0048.347.0201.4687 .0154.1211.044.2091.087.2633 .0431.0538.1021.0753.1786.0647 .0769-.011.1764-.0534.2996-.1287m-.0057.5687c-.1924.1168-.3644.1978-.5148.242 -.1506.0436-.2763.0363-.3781-.0223 -.1017-.0583-.1778-.1747-.2292-.3484 -.0519-.1734-.0761-.4185-.0731-.7348 .0035-.3169.0329-.5947.0888-.8337 .0559-.2385.1355-.4495.2397-.6332 .1037-.1833.2314-.3444.3827-.484 .1517-.1396.3242-.2682.5165-.3847 .1944-.1183.3672-.1995.5181-.2437 .1508-.0444.2766-.0373.3778.0213 .1012.0591.1768.176.2269.3501 .051.1742.0744.4193.0708.736 -.0031.3168-.0317.5941-.0867.8322 -.0546.238-.1338.4486-.2376.6318 -.1033.1829-.231.3443-.3828.4844 -.1522.1395-.3255.2681-.5199.3862"/><path mask="url(#k)" d="M27.1538 30.3554c-.0089 0-.0181.0008-.0281.0022 -.0696.0091-.1633.0488-.2786.1193 -.1179.0713-.2147.1479-.2891.228 -.0731.0791-.1289.1692-.1711.2742 -.0427.1053-.0727.225-.0907.3658 -.0172.1377-.0274.3028-.0295.4905 -.0017.1885.0048.3438.0197.4612 .014.1111.0397.1903.0751.2358 .0303.038.069.0499.1271.0436 .0686-.0096.1623-.0502.2776-.1207 .1187-.0718.216-.1485.2899-.2272 .0743-.0783.1327-.1689.1741-.2691 .0422-.1029.0726-.2232.0897-.3584 .018-.1401.0277-.306.0294-.4928 .0021-.183-.0045-.3371-.0198-.4592 -.0137-.1128-.0392-.1947-.0761-.2432 -.0252-.0346-.0569-.0508-.1004-.0508m-.6925 2.3353c-.0765 0-.1407-.0303-.1875-.0884 -.0497-.0627-.0819-.158-.099-.2915 -.0159-.1244-.0225-.2802-.0207-.4762 .0021-.1951.0123-.3597.0303-.5035 .0194-.151.0514-.2798.0976-.3935 .0465-.1165.1117-.2201.1931-.3081 .0809-.0884.1863-.172.3131-.2482 .1302-.0797.2357-.124.322-.1352 .0993-.012.1789.0186.234.0926 .0492.0656.0809.1622.0971.2966 .0158.1264.0229.2862.0206.4734 -.0018.1912-.0119.3615-.0303.5059 -.0186.1448-.0516.2753-.0977.3873 -.0463.1127-.1123.2143-.1959.3027 -.0806.0862-.1862.169-.3132.2459 -.1303.0796-.2355.1243-.3213.1365 -.015.0017-.029.003-.0432.003m1.0615-3.0337c-.0501 0-.1051.0086-.1654.0266 -.1453.0424-.3151.1225-.5047.2375 -.1878.1137-.3585.241-.5076.3781 -.1466.1351-.272.2934-.3718.4703 -.1008.1775-.1795.3855-.2342.6182 -.0546.2332-.0841.5097-.0875.8213 -.0031.3097.0206.5517.0708.7179 .0469.1597.1151.2656.2032.3159 .0879.0507.1974.0568.3338.0171 .1447-.0426.3136-.1222.501-.2359 .1908-.1161.3629-.2439.5111-.38 .1469-.1352.2719-.2936.3717-.4709 .1007-.1776.1789-.3856.2318-.6166 .0536-.2319.0822-.508.0852-.8205 .0035-.3107-.0198-.5527-.0686-.7198 -.0459-.1598-.1135-.2666-.2015-.3178 -.0489-.0281-.1047-.0425-.1682-.0425m-1.4267 3.7412c-.0841 0-.1601-.0192-.2267-.0578 -.1135-.0652-.1993-.1934-.2551-.3811 -.0529-.1773-.0783-.4298-.0752-.7509 .0034-.3204.0338-.6049.0901-.8459 .0571-.2434.1399-.4613.2458-.6482 .1055-.1868.238-.3545.3933-.4976 .1548-.1423.3312-.274.5253-.3912 .1978-.1204.3769-.2044.5318-.25 .1662-.0487.3079-.0389.4218.0266 .1138.0665.1987.1955.253.3833 .0527.1798.0764.4256.073.7517 -.0031.3207-.0326.6047-.088.8444 -.0556.2415-.1374.4595-.2434.6468 -.1061.1867-.2385.3544-.3938.4979 -.154.1409-.3317.273-.5288.3928 -.1963.1194-.374.2026-.5285.2482 -.0691.02-.1342.03-.1954.03"/><path mask="url(#l)" d="M28.5564 28.8649l.9502-.5772 .4237 1.4834 .0232-.0141 .4795-2.0322 .9225-.5606 -.0321 3.11 -.5768.3499 .0251-2.4461 -.0229.0139 -.5342 2.1722 -.5846.3551 -.4889-1.5512 -.0229.0135 -.0251 2.447 -.5693.3455Z"/><path mask="url(#m)" d="M28.6121 28.8965l-.0308 2.9776 .4561-.2766 .0251-2.4475 .1111-.066 .4884 1.5502 .5031-.306 .5341-2.1718 .1293-.0797 -.0252 2.4468 .4638-.2813 .0307-2.9779 -.8162.4954 -.4794 2.0325 -.1065.0637 -.4238-1.4829 -.8605.5224Zm-.1452 3.1789l.0334-3.242 1.0399-.6321 .3955 1.385 .4478-1.897 .0197-.0124 1.0091-.6135 -.0335 3.242 -.6899.4186 .022-2.1436 -.4475 1.8194 -.6661.4047 -.4258-1.3522 -.0229 2.2076 -.6824.4147Z"/><path mask="url(#n)" d="M33.6054 28.3l-.0062.5916 -1.6841 1.0231 .032-3.1096 1.63-.9908 -.0063.5916 -1.0456.6354 -.0067.6406 .9687-.5882 -.0063.5687 -.9688.5885 -.0071.7168Z"/><path mask="url(#o)" d="M32.003 26.8368l-.0308 2.9771 1.5709-.9538 .0048-.4596 -1.0999.6682 .0084-.8488 .9687-.5886 .0048-.4369 -.9688.588 .0079-.7728 1.0456-.6355 .0048-.4595 -1.517.9216Zm-.1452 3.1784l.0334-3.2416 .0264-.0162 1.7165-1.0437 -.0076.7236 -1.0457.6354 -.0053.5084 .9687-.5881 -.0076.701 -.9688.5885 -.0058.5845 1.0998-.6683 -.0076.7238 -.0263.0162 -1.7708 1.0758Z"/><path mask="url(#p)" d="M24.8835 35.6956l-.6999.425 -.0256 2.5141 -.5804.3523 .0256-2.514 -.7.4252 .0062-.5961 1.9799-1.2029Z"/><path mask="url(#q)" d="M23.6604 36.3726l-.0256 2.5144 .4671-.2837 .0256-2.5142 .6998-.4251 .0048-.4638 -1.8671 1.1337 -.0048.4638 .6998-.4255Zm-.14 2.7148l.0255-2.5136 -.6999.4254 .0074-.7282 .0264-.0163 2.0667-1.2558 -.0076.7281 -.6999.4248 -.0256 2.5141 -.6934.421Z"/><path mask="url(#r)" d="M25.2544 34.8778l.5847-.3554 -.0317 3.1102 -.5849.3549Z"/><path mask="url(#s)" d="M25.3644 34.9094l-.0419 2.978 .649-.2861 .0416-2.9783 -.649.2862Zm-.1991 3.1784l.0453-3.2416 .96-.4244 -.0454 3.2424 -.9601.4234Z"/><path mask="url(#t)" d="M27.2899 36.1529c.1226-.0745.23-.1541.3212-.2399 .0914-.085.1671-.1829.2287-.2945 .0606-.1117.1068-.2385.1372-.382 .0311-.1437.0474-.3089.0492-.4972 .0021-.2004-.0119-.3545-.0414-.4629 -.0295-.1082-.0736-.1804-.1333-.2171 -.0594-.0369-.1347-.0408-.2254-.0124s-.1961.0792-.3163.1522l-.3001.182 -.0203 1.9538 .3-.1825Zm.0568-2.546c.1944-.1181.3716-.2056.5318-.2625 .1591-.0569.296-.0635.409-.0194 .1127.0446.1985.1487.2578.3146 .0598.1658.0879.4099.0845.7328 -.0032.3014-.0367.5708-.1004.8064 -.0634.2358-.1527.4485-.268.6368 -.1148.1894-.2535.3569-.4139.5034 -.1612.1466-.3384.2792-.5328.3973l-.9155.5561 .0316-3.1104 .9154-.5557Z"/><path mask="url(#u)" d="M27.0658 34.4131l-.0189 1.8217 .2133-.1297c.1205-.0731.2257-.1514.3118-.2328 .087-.0811.1584-.1724.2181-.2809 .0585-.1076.103-.231.1316-.3663 .0298-.1387.046-.3024.048-.4863 .0021-.1934-.0112-.3441-.0398-.4481 -.0256-.0933-.0621-.1555-.1083-.1838 -.0454-.0281-.1038-.0303-.1787-.0067 -.0862.027-.1887.0765-.304.1465l-.2736.1658Zm-.1333 2.023l.0215-2.086 .3264-.1983c.123-.0752.234-.1282.3286-.158 .1063-.0342.1978-.0277.2723.0179 .0721.0445.1239.1264.1579.2499 .0307.1141.0451.2753.043.4782 -.0017.1917-.0189.3627-.0506.5084 -.0308.1457-.0788.2796-.1425.3969 -.0652.1172-.1457.2209-.2403.3089 -.0915.086-.2029.1692-.3299.2463l-.3867.2354Zm-.4457-2.2419l-.0303 2.9782 .8286-.5032c.1891-.1152.3656-.2465.5244-.3909 .1575-.1439.2929-.3094.4034-.4915 .1122-.1824.2001-.3922.2617-.6223 .0624-.2303.0954-.4971.0985-.7924 .0035-.3147-.0238-.5549-.081-.7137 -.0542-.1507-.1281-.2426-.2258-.2815 -.0999-.039-.2235-.0329-.3695.0196 -.1558.0556-.3313.142-.5214.2576l-.8891.5395Zm-.1447 3.1794l.0329-3.2425 .9419-.572c.1969-.1199.3791-.2096.5423-.2679 .1715-.0613.3224-.0679.4487-.0185 .128.0507.2257.1677.2903.3479 .0625.1737.0911.4195.0875.7522 -.0031.3054-.0375.581-.1021.8203 -.0648.2407-.1571.46-.2745.6515 -.1158.1908-.2583.3645-.4238.5155 -.1641.1497-.3463.2853-.5416.4039l-1.0021.609Z"/><path mask="url(#v)" d="M30.8308 33.993l-.0062.5916 -1.6841 1.0231 .0316-3.1099 1.6298-.9903 -.0058.5916 -1.0452.6353 -.0067.6406 .9683-.5886 -.0063.5692 -.9683.588 -.0071.7168Z"/><path mask="url(#w)" d="M29.228 32.5293l-.0304 2.9778 1.571-.954 .0047-.4596 -1.0994.6678 .0084-.849 .9682-.5881 .0048-.4373 -.9683.5885 .0079-.7729 1.0451-.6354 .0044-.4595 -1.517.921Zm-.1448 3.179l.033-3.2421 .0264-.0162 1.7164-1.0434 -.0069.7238 -1.0454.6353 -.0053.5085 .9682-.5886 -.0075.7014 -.9684.588 -.0058.5846 1.0993-.6679 -.0075.7238 -.0265.0162 -1.7708 1.0759Z"/><path mask="url(#x)" d="M18.5471 19.5492l-2.5107 1.5228 -14.0766 8.113 -.0645-16.7951L18.5469 2.2968v17.2523Zm-5.4895 17.4375h.0162V24.9538l2.5032-1.4427v14.9976l-2.5195-1.5222Zm-6.2141-3.7549l-3.97-2.3991 3.9699-2.2882v4.6871Zm4.3386-7.1878v9.8092L8.735 34.3745v-6.9203l2.447-1.4105ZM20.4384.9701l-1.7369-.9703L-.0002 11.3354 .0761 31.344l15.6567 9.4605 1.7355-.9712V22.4067l2.9698-1.8015V.9697Z"/><path mask="url(#y)" d="M21.3665 41.703V24.4506l2.5107-1.523 14.0763-8.1129 .0644 16.795 -16.6517 10.093Zm5.4894-34.6899h-.0163v12.0328l-2.5033 1.4426V5.4906l2.5194 1.5223Zm6.0729 3.6696l4.111 2.484 -4.1111 2.3694v-4.8536Zm-4.1977 7.2728V8.1463l2.306 1.3934v7.0867l-2.3061 1.329Zm11.1057-5.3001L24.1801 3.1948l-1.7356.9711v17.4265l-2.97 1.8012V43.029l1.737.9704 18.7016-11.3357 -.0765-20.0087Z"/></g></g></g></svg>